<mxfile host="app.diagrams.net" agent="Mozilla/5.0 (Windows NT 10.0; Win64; x64) AppleWebKit/537.36 (KHTML, like Gecko) Chrome/130.0.0.0 Safari/537.36" version="28.1.0" pages="2">
  <diagram name="Page-1" id="80d4a630-b321-0f5e-ff81-c5a36ef4752d">
    <mxGraphModel dx="2771" dy="1961" grid="1" gridSize="10" guides="1" tooltips="1" connect="1" arrows="1" fold="1" page="1" pageScale="1" pageWidth="1100" pageHeight="850" background="none" math="0" shadow="0">
      <root>
        <mxCell id="0" />
        <mxCell id="1" parent="0" />
        <mxCell id="ELkH5JOpvB0yVDv-fO6E-1" value="电脑端用户" style="rounded=1;whiteSpace=wrap;html=1;labelPosition=center;verticalLabelPosition=top;align=center;verticalAlign=bottom;fontSize=18;" vertex="1" parent="1">
          <mxGeometry x="10" y="80" width="120" height="180" as="geometry" />
        </mxCell>
        <mxCell id="ELkH5JOpvB0yVDv-fO6E-4" value="移动端用户" style="rounded=1;whiteSpace=wrap;html=1;labelPosition=center;verticalLabelPosition=top;align=center;verticalAlign=bottom;fontSize=18;" vertex="1" parent="1">
          <mxGeometry x="10" y="290" width="120" height="240" as="geometry" />
        </mxCell>
        <mxCell id="ELkH5JOpvB0yVDv-fO6E-5" value="阿里云/华为云/腾讯云" style="rounded=1;whiteSpace=wrap;html=1;labelPosition=center;verticalLabelPosition=top;align=center;verticalAlign=bottom;fontSize=18;" vertex="1" parent="1">
          <mxGeometry x="210" y="80" width="820" height="680" as="geometry" />
        </mxCell>
        <mxCell id="ELkH5JOpvB0yVDv-fO6E-47" value="中间件层" style="rounded=1;whiteSpace=wrap;html=1;labelPosition=left;verticalLabelPosition=middle;align=right;verticalAlign=middle;fontSize=16;" vertex="1" parent="1">
          <mxGeometry x="316" y="630" width="584" height="110" as="geometry" />
        </mxCell>
        <mxCell id="ELkH5JOpvB0yVDv-fO6E-6" value="" style="dashed=0;outlineConnect=0;html=1;align=center;labelPosition=center;verticalLabelPosition=bottom;verticalAlign=top;shape=mxgraph.webicons.apple;fillColor=#807E7E;gradientColor=#1B1C1C" vertex="1" parent="1">
          <mxGeometry x="40" y="310" width="60" height="60" as="geometry" />
        </mxCell>
        <mxCell id="ELkH5JOpvB0yVDv-fO6E-7" value="" style="dashed=0;outlineConnect=0;html=1;align=center;labelPosition=center;verticalLabelPosition=bottom;verticalAlign=top;shape=mxgraph.webicons.android;gradientColor=#DFDEDE" vertex="1" parent="1">
          <mxGeometry x="40" y="390" width="60" height="60" as="geometry" />
        </mxCell>
        <mxCell id="ELkH5JOpvB0yVDv-fO6E-8" value="" style="dashed=0;outlineConnect=0;html=1;align=center;labelPosition=center;verticalLabelPosition=bottom;verticalAlign=top;shape=mxgraph.webicons.chrome;gradientColor=#DFDEDE" vertex="1" parent="1">
          <mxGeometry x="34.5" y="90" width="71" height="70" as="geometry" />
        </mxCell>
        <mxCell id="ELkH5JOpvB0yVDv-fO6E-12" value="" style="image;sketch=0;aspect=fixed;html=1;points=[];align=center;fontSize=12;image=img/lib/mscae/Cache_Redis_Product.svg;" vertex="1" parent="1">
          <mxGeometry x="480" y="650" width="50" height="42" as="geometry" />
        </mxCell>
        <mxCell id="ELkH5JOpvB0yVDv-fO6E-13" value="" style="image;sketch=0;aspect=fixed;html=1;points=[];align=center;fontSize=12;image=img/lib/mscae/Cache_Redis_Product.svg;" vertex="1" parent="1">
          <mxGeometry x="530" y="650" width="50" height="42" as="geometry" />
        </mxCell>
        <mxCell id="ELkH5JOpvB0yVDv-fO6E-14" value="" style="image;sketch=0;aspect=fixed;html=1;points=[];align=center;fontSize=12;image=img/lib/mscae/Docker.svg;" vertex="1" parent="1">
          <mxGeometry x="270" y="594" width="50" height="41" as="geometry" />
        </mxCell>
        <mxCell id="ELkH5JOpvB0yVDv-fO6E-15" value="Kerbernate" style="image;sketch=0;aspect=fixed;html=1;points=[];align=center;fontSize=14;image=img/lib/mscae/Kubernetes.svg;" vertex="1" parent="1">
          <mxGeometry x="970" y="590" width="41.67" height="40" as="geometry" />
        </mxCell>
        <mxCell id="ELkH5JOpvB0yVDv-fO6E-16" value="" style="shape=link;html=1;rounded=0;entryX=0.76;entryY=-0.062;entryDx=0;entryDy=0;entryPerimeter=0;" edge="1" parent="1" target="ELkH5JOpvB0yVDv-fO6E-15">
          <mxGeometry width="100" relative="1" as="geometry">
            <mxPoint x="270" y="590" as="sourcePoint" />
            <mxPoint x="370" y="590" as="targetPoint" />
          </mxGeometry>
        </mxCell>
        <mxCell id="ELkH5JOpvB0yVDv-fO6E-17" value="mysql数据库" style="image;sketch=0;aspect=fixed;html=1;points=[];align=center;fontSize=14;image=img/lib/mscae/Azure_Cache_for_Redis.svg;" vertex="1" parent="1">
          <mxGeometry x="340" y="650" width="50" height="50" as="geometry" />
        </mxCell>
        <mxCell id="ELkH5JOpvB0yVDv-fO6E-18" value="云存储(OSS)" style="shape=image;verticalLabelPosition=bottom;labelBackgroundColor=default;verticalAlign=top;aspect=fixed;imageAspect=0;image=data:image/png,iVBORw0KGgoAAAANSUhEUgAAAC0AAAAgCAYAAACGhPFEAAAAAXNSR0IArs4c6QAAAkFJREFUWEfNmNFxwjAQRFc0EfgKdBIqCaoEqESkkjiVxPmCNIHCWdJgG1t3h+WZ8JPJIKzn9d3eygZzf9z5LW5Rw67qEtuZEhcZvIY7HwCz731XAd5OhZ8H2v06wO/GBTGn8N31B0AFu6o04pWHHlaYYfJH2NVBCj4DNKfyGJocvCz0Uyq3b8IfAZy4mi8D7c5rwLhbfSankD7poXUV7HKbu0Ap6CGnmADuNzm1/yt0tjGfhw5DIwwMd/m+1eJ6grS9n5oT7Isdu54euoE1n+GCsePdhf4vUc+RM+8kOujQcKRq+oSmmewaHU1r2OWmXCMOTrrYNOwUFBWPaMzLlX5UOVHUgN+G2m5Kh/KGtlREsGlDDXTO1gicglDIEDrV2XLoPyMFtMQhWhNt2FFI0a9bX7w3zgP/EQOTKrLKoMdLY3iipfgZbDGVyniao3WKpCeF1k48UpRyRDf4uzPFVfJzKiP6S25EqoNzjLY6QuiLF/X+8KIKMFQKpHhmAOVHtw66M0wmoLM/LRlNdU7AomUWiF0kXx73BoyPuDkeFf4sXgEf6zv6PbMDBx06X9HZT99ROrUL9hI2Ip2sG0W0k05yD2q/5qGLJ7ix+6AT+pVyNDtouPLopzqJcsI1BNm3wSYKxNcL45fhoLVDRQJ8d4kHO82Hf1lgKpuT454tsId4UAZ6F0/ZEgUVazydtmtgse++iZINGK48qKbpKFXw/Je7N9koF7gHhZwm2M8M3gwW0Ts9HjoJE8x/LnCKrazVJZQ/Kln1IQlyHk0AAAAASUVORK5CYII=;fontSize=14;" vertex="1" parent="1">
          <mxGeometry x="640" y="650" width="70.31" height="50" as="geometry" />
        </mxCell>
        <mxCell id="ELkH5JOpvB0yVDv-fO6E-19" value="配置中心" style="aspect=fixed;sketch=0;html=1;dashed=0;whitespace=wrap;verticalLabelPosition=bottom;verticalAlign=top;fillColor=#2875E2;strokeColor=#ffffff;points=[[0.005,0.63,0],[0.1,0.2,0],[0.9,0.2,0],[0.5,0,0],[0.995,0.63,0],[0.72,0.99,0],[0.5,1,0],[0.28,0.99,0]];shape=mxgraph.kubernetes.icon2;prIcon=c_c_m" vertex="1" parent="1">
          <mxGeometry x="436" y="456" width="50" height="48" as="geometry" />
        </mxCell>
        <mxCell id="ELkH5JOpvB0yVDv-fO6E-20" value="Nginx|网页" style="shape=image;verticalLabelPosition=bottom;labelBackgroundColor=default;verticalAlign=top;aspect=fixed;imageAspect=0;image=data:image/png,iVBORw0KGgoAAAANSUhEUgAAACEAAAAgCAYAAACcuBHKAAAAAXNSR0IArs4c6QAAA1JJREFUWEedV8Fu2zAMJe38xrD0M3ZLb22xDPuDpPelQL+gzX3AgGT3prcdh2Voe2v2JfV/NDEH0qIq0bLs1JfAikQ+ko9PNMI7n7P15wkC3gDBGBAqAlo+Lf7u3mMOjz10sf5yS0QzQBi3zhKDgeXT1XZzjN3BILLOrccjwfSCEOdAN8dE5vcSVIh4/7D4c5s7nwRx9uPruBjV8yHOaV+e4OjwkgXZAyYCcYxz53T3uNienq+nNChTHWAiEOer6UuScF0euPaH8rQ3E+3zAl6XYxBDI3KnEXDJ9b74Ob0jgvmgbPAmgurxanvSAnG2ms4R4c4Y4r6fhGvsuIZ6ZzWBSwnlYYIIs9YZhI0FSUCnasNnIhGNpMx3B6ce6VIPitPRfszvLFzhekhqdgb7UYXl4TkstWaRA/QgOviwo315yRufrn9X/OuU8rk53JTjfD3l9wmnmTnCexmk/DbKKvttlpUXbyC6+BDUjw2HJCSCS1ZHD8LVW4Hwa2fnBHYFRAcfBDgibB6+bSUb/ITipSC6SuZANFlKPKwxnC0BkVNF3cjRcmk01Vz3el9s5H01nReIY1VGF9SM050LUMnZgOhuMSGnN2TImYou2nsoRQu6dEQ5JSC6REpLEYEMgDDpCigmPiOGhBppRgQlSLRks5rgxaiGCRawq2v4p1e1ElIjslqRJG7owJETh5BS282m34Mw5BWys4641o66xxoh+IQtPrhLxqqipr5pGfpIPFEFrOds8Dr/zdkCpMoKGxCOEeAmup8QrtHWi3lQE90XiDN2pGJlFS9FyqiULjs6BiJCxXZlJIxaln5hNlWN1aZDrPIRiIJGTzDy+dbuv5m/Z4mpDizLrYDpPsuRQVMZ7T/0KqY44KhRIhfl0yjZiefBa7kMNYGB9l3vkVj1qWaq1jZK4dJruRw6FiZvUacXPE8kdV6BPC62jcDxhcedVEDrW6MvA8oztdmaMfu6IJwPUt8Ymau78WmmKimhJXhOQd3et/uk6XnpEv0C6+u2cKJKZkIXcyrqHMq0xOMc3568xvI+5FzqU7Hz4yfbXomUSgbNCBcR2k1hLW1JlcNno5mieomaMppYi0b8tsZlrPRFNwhAImtHgeDNHsggj+1N4YTeZeI/vQKM/DDO/VUAAAAASUVORK5CYII=;" vertex="1" parent="1">
          <mxGeometry x="334.22" y="280" width="51.56" height="50" as="geometry" />
        </mxCell>
        <mxCell id="ELkH5JOpvB0yVDv-fO6E-21" value="网关" style="aspect=fixed;sketch=0;html=1;dashed=0;whitespace=wrap;verticalLabelPosition=bottom;verticalAlign=top;fillColor=#2875E2;strokeColor=#ffffff;points=[[0.005,0.63,0],[0.1,0.2,0],[0.9,0.2,0],[0.5,0,0],[0.995,0.63,0],[0.72,0.99,0],[0.5,1,0],[0.28,0.99,0]];shape=mxgraph.kubernetes.icon2;prIcon=ep" vertex="1" parent="1">
          <mxGeometry x="430" y="280" width="50" height="48" as="geometry" />
        </mxCell>
        <mxCell id="ELkH5JOpvB0yVDv-fO6E-22" value="公共接口" style="aspect=fixed;sketch=0;html=1;dashed=0;whitespace=wrap;verticalLabelPosition=bottom;verticalAlign=top;fillColor=#2875E2;strokeColor=#ffffff;points=[[0.005,0.63,0],[0.1,0.2,0],[0.9,0.2,0],[0.5,0,0],[0.995,0.63,0],[0.72,0.99,0],[0.5,1,0],[0.28,0.99,0]];shape=mxgraph.kubernetes.icon2;prIcon=ing" vertex="1" parent="1">
          <mxGeometry x="430" y="150" width="50" height="48" as="geometry" />
        </mxCell>
        <mxCell id="ELkH5JOpvB0yVDv-fO6E-23" value="新泉ERP服务集" style="rounded=1;whiteSpace=wrap;html=1;fontSize=16;labelPosition=center;verticalLabelPosition=top;align=center;verticalAlign=bottom;" vertex="1" parent="1">
          <mxGeometry x="550" y="120" width="410" height="240" as="geometry" />
        </mxCell>
        <mxCell id="ELkH5JOpvB0yVDv-fO6E-24" value="" style="image;aspect=fixed;html=1;points=[];align=center;fontSize=12;image=img/lib/azure2/networking/Azure_Firewall_Manager.svg;" vertex="1" parent="1">
          <mxGeometry x="211" y="290" width="70" height="60" as="geometry" />
        </mxCell>
        <mxCell id="ELkH5JOpvB0yVDv-fO6E-25" value="" style="image;aspect=fixed;html=1;points=[];align=center;fontSize=12;image=img/lib/azure2/networking/Azure_Firewall_Manager.svg;" vertex="1" parent="1">
          <mxGeometry x="430" y="80" width="70" height="60" as="geometry" />
        </mxCell>
        <mxCell id="ELkH5JOpvB0yVDv-fO6E-26" value="框架公共服务" style="rounded=1;whiteSpace=wrap;html=1;labelPosition=center;verticalLabelPosition=top;align=center;verticalAlign=bottom;fontSize=15;" vertex="1" parent="1">
          <mxGeometry x="550" y="430" width="410" height="120" as="geometry" />
        </mxCell>
        <mxCell id="ELkH5JOpvB0yVDv-fO6E-27" value="仓储服务" style="shape=image;verticalLabelPosition=bottom;labelBackgroundColor=default;verticalAlign=top;aspect=fixed;imageAspect=0;image=data:image/png,iVBORw0KGgoAAAANSUhEUgAAACAAAAAgCAYAAABzenr0AAAAAXNSR0IArs4c6QAAAYRJREFUWEftltFtwjAQhu83QySPdBM6SKEugwCDkIR0kMIkzWPaHeKrbCUIgo0TY9FWwhJPnO3vzvdfflDgSt/zmWK1EEQHasS+lrIKOQohm5Iy+yCi2eleMG9IiWIsyCgAnTUz50Q0dYDv0UCOgRgMkO62awZWQyoGYlnPl8WwWE9Um7W++KzkvsOZuBCN2PiqcbUCY7J2AFUAZP0i9y5gK0Ca51OemLcelbXzkisNegHQllx3eexlbdAzAJu8YlP05WoA2pLrrF3yis1xrAbayz9j3+A7T6vke76USMvtKxN0w919ocETIkgtGBzAcx+gAvPOdSIDi5h9cgHQvYsLILZKHgCPCthVQLxxqiDyvLABBGs6ZOPfBNCzwJYNCPpD1f1MiCfW6yVuUoH+rNaL5frK0GLfs9wG4DGeSZk9AP5hBYjI2Ghr87CanhoX4+2EsNvtXqzTLRs/8IuO6Gv+BmNKkzLTnvBehvQ4Q4wn7FyxmqgVCN7h4dP2gP+16zp0M+QHDCk+4BjEHC0AAAAASUVORK5CYII=;fontSize=14;" vertex="1" parent="1">
          <mxGeometry x="619" y="150" width="32" height="32" as="geometry" />
        </mxCell>
        <mxCell id="ELkH5JOpvB0yVDv-fO6E-28" value="财务服务" style="shape=image;verticalLabelPosition=bottom;labelBackgroundColor=default;verticalAlign=top;aspect=fixed;imageAspect=0;image=data:image/png,iVBORw0KGgoAAAANSUhEUgAAACAAAAAgCAYAAABzenr0AAAAAXNSR0IArs4c6QAAAe9JREFUWEfFVyFMAzEUfZ3AkZCgNsNmJlCQacIIFgESRWbwJCA3LkFCgoWZBYUEgSUM0AsoxMxQYCBAhkKs3Nuty+1227WX21p1ybX/vf/f628r4Bs1R2b/OtgRwHpHYlEIzPv/x/2WEp8pgRcJ3M6kcFFyxKuKJdRHtSz3pcBxXBCTdULiYPdInHBNl8A0wfuZ90iIXtlbJhkkNdeVIyfOK/LQDegkFdQwjiOqFfngmmPFcGEi012zP4qzsvxIyu2mrLg7KIE0WTg7583OLwPpLNB8BvJLwP0VkM4B7y2g/a0f0ZhAYQ0oFEcDXJ5OmAChR5G4qQFv/RajVwXjCqiw23uDAI060HzSA/XPik0gkx0GM82+2wlNTThOAlP9YxGwasIocCVK/VrfD9oScP8HjTfOcrpyaBMIZq8cz4ZE8/1+ec1JDf5nJaKGFoGw7NntuO8JSrCw6uhUQYsAQYqbw7moLBW4atNq5kQJMHsOlp8ECR5s0YkRCJOAnY8ysAokkFkY9AD/kUDU0JKAQTZKgL/7qROPp+Dqlgfjl4AEG3dR8AadkMFJIqhzGIRu9sadkODMNuwcMN1+ar62BP5MSYCXD15IONgD2j/eZcT0QLJ/JbN+KbV+Lbf+MKGJrD7NlLunSWLocapI2Hie/wMi/QUCIOgWiwAAAABJRU5ErkJggg==;fontSize=14;" vertex="1" parent="1">
          <mxGeometry x="710" y="150" width="32" height="32" as="geometry" />
        </mxCell>
        <mxCell id="ELkH5JOpvB0yVDv-fO6E-29" value="主数据服务" style="shape=image;verticalLabelPosition=bottom;labelBackgroundColor=default;verticalAlign=top;aspect=fixed;imageAspect=0;image=data:image/png,iVBORw0KGgoAAAANSUhEUgAAACAAAAAgCAYAAABzenr0AAAAAXNSR0IArs4c6QAAAgtJREFUWEfFVztOw0AQnbFpkEgJiIqUEHGHhJskJ0l8kpiT4NwBRZSmQoSSSDTYA+Nf1vvzrgk4bbx+b9/MvDdGGPiHA+NDLwKfrzfjryCYI9KUL0CEm5M8j0+vnlPfC3kROADDUgOUEsHD6HK78iHhTODjbbJC1ALLeF5EOgnsd5P5j8p847HPzQCAyxGdXWxj2zkjAZY7C3ENgDNPYFURDBaj86dE9x6FwBGBZbw4zPJIbtSGQEeD/VKE5rjSHwUBjwY7OhHc724fj1DnvsRiHOD2DVkiiMoSvN/NkLLlPyqRUjUZrSbMwoBHrs/Mu5ZA34Ti6T+aBqM7Wo2oDBwn+zUqwHW25QNWVlukWpls8CIe6K8IJWFGi9p4hPdcC2w3aABQJPNwyKbBaiDNpDXv73JChYglnJTw0Y24XBJtFmhq3yJSqlFMzJRLBkGQiGFTjnW+lhLUngVyFxkkt0asATgNs/zetC0VTUh0yHpESMUMN0jeqrOJbG02Yi+IF2UscxMKGS5ILpsUKyIvKk4NXPeC5ITKAqLc1OINTsC8KYklUZrQIHmrgXRbsewdWRiwWrzO1T9lPPkPrRMaJGe5E91WUyO4ekqrD2wpYnuh+B3QB7jG7dyK+UETAABVHyLtxbXL/50V0HuDUlvhsbb/u2S0kwIdRFJWgjCMTKu3jUgvAi43c31mcALfB7+QLZ0fy0kAAAAASUVORK5CYII=;fontSize=14;" vertex="1" parent="1">
          <mxGeometry x="790" y="150" width="32" height="32" as="geometry" />
        </mxCell>
        <mxCell id="ELkH5JOpvB0yVDv-fO6E-30" value="订单与生产服务" style="shape=image;verticalLabelPosition=bottom;labelBackgroundColor=default;verticalAlign=top;aspect=fixed;imageAspect=0;image=data:image/png,iVBORw0KGgoAAAANSUhEUgAAACAAAAAgCAYAAABzenr0AAAAAXNSR0IArs4c6QAAAmVJREFUWEfdl01oE0EUx/+zCXGzsbHGeKhBaBDEj5NQ8eahgt4VoSpCvXgQD4InqQqCH714LVixeCpSNAdPehAPRUEs2ouGgpGVGklJbGz8JN3Nk7dpSmyym5l1S8U5Dbv/ef/fezNv2RFY4yHW2B8tAOduUG8kaj/Lz9EWhhM+EYnqqfWmtLfXzoZ2uyXaEv78TatYKFGSFxw+oCHzpOasXTmffEUolpdcOpQxvVWbvnomtKedrAXgxIVFJ+rmjQKnj2gYfVAHaMzZlOeTrwnZ93IAMUPURi+FQ0oAQZ4NPSrozuWwJgUwdLsml5YCoaGL6tBJsU4KwCw0jo+CAwA9/w6xmSl87h9YXsjP9E85lPsOzaR7xA4pgHzJH0CoMo9kZgRzgxeXfbpePIYdT+DHzr3ZVFLsWlUADr4pM4Jqahsbwsi+BAMwkB1PqAOUKsDTae9tOLr/z/dcBTaO5HOwuxL4uu+gUwEA/gDMgjdA33bpc6IOIB1aTqgOULWAn1W56M0q7uFuo2WdP4DClxV73PZTAtj1j6Uz4kZAAOq5e65Qr8DC984IG2KdNUsKdQBuw4fP3Q30CHC8f5UBFi1vgx6nxaWGegWkwsqL1AG4DZu7IBL2dmN9oF3QAFivy6f57df/1IbyeUsp1c+AVFh5kT+AcoUwvyDv4qa0bHwYu28P8nsLlnlvOGo2tC1/xc1/RFNvaph41PSh/3sWkKBT49cjd/9hgCKNQ+AYE3L2XIUgh01W2nMLZmcpqukYy32kgVsTdoDeZJLAlebyc3DXmx8Rtb3JqBIJITyz8Hn1VMVw1/8Ghp8zMCETpTQAAAAASUVORK5CYII=;fontSize=14;" vertex="1" parent="1">
          <mxGeometry x="880" y="150" width="32" height="32" as="geometry" />
        </mxCell>
        <mxCell id="ELkH5JOpvB0yVDv-fO6E-31" value="采购服务" style="shape=image;verticalLabelPosition=bottom;labelBackgroundColor=default;verticalAlign=top;aspect=fixed;imageAspect=0;image=data:image/png,iVBORw0KGgoAAAANSUhEUgAAACAAAAAgCAYAAABzenr0AAAAAXNSR0IArs4c6QAAAapJREFUWEfFl91xgzAQhPfs9BHTQSb4PbiSiEpiKolcSZx3k0kHJn2EuYwQDH/6gRgZvRlj8XlvT7cQVl7E4mkHPAiAH/ssZUbyuwjNRyziK4Cd4UEFyTxaEwBAGYVWgVg8C4Dezf+UDiQv55AqkNpc+6BZWwWT6E+ckvySwQG6D2CxPwL8Vl8LacICoM9KgT6AqySLa1EYAPYJwB+LP8qyoQFA+WGrWvMeS44AtCljpUBtxJAcZbQmwJlkfrAA9DohkAS6xW0AdzCiPmUtAMGNWMmvpDUC1Ea0DakFStKesC6AUJ3Qm7IOgJERFziW6QT8yu6EdQF0jRgsGzgA+kYkmVvvvcUUzk1ZxNxuzimwuakMpmzhA1jaiKNSegCWn4zDUnrryqKCeLUE15nl59MwYXkB2si2SZQH5mREHfU2iSvWeQEMoXVSSw5GegFwZgKZANDthEZxykhejjb9WcQq2IrB90bw/5pQksxTB4Cle8Yx3wNgnYo+AJMCxhedCSUYzwTfK5s23yhXGqG9ALoLqqj+AtCPq/b9eN+89Oqrtt9NApjZ7LNu/wMkG8gWsMza1wAAAABJRU5ErkJggg==;fontSize=14;" vertex="1" parent="1">
          <mxGeometry x="619" y="248" width="32" height="32" as="geometry" />
        </mxCell>
        <mxCell id="ELkH5JOpvB0yVDv-fO6E-32" value="报关服务" style="shape=image;verticalLabelPosition=bottom;labelBackgroundColor=default;verticalAlign=top;aspect=fixed;imageAspect=0;image=data:image/png,iVBORw0KGgoAAAANSUhEUgAAACAAAAAgCAYAAABzenr0AAAAAXNSR0IArs4c6QAAAi1JREFUWEfVl7tOAkEUhv95BanUhkYbsNNEOqk00ahPgGi12tljYqK9nVCJ4QnEaC1WkGinlRbSqBW+wsjPcsJ4mZ3ZsGbjFFyW5Zzv/OcCR2F45gJd1sAWgCW5lvSzBroK6AK4faypQ9pXfMgH+uYvHVsCaT3WVFENI68nHa2PPQVsq5SiF76WygX6RQFZH+Kk7xnURD7QOmnDcez9X4CNAjA/A0xngIVZ4LUHHDSAu6c48QNjKTCVCQF2V0OIizZw2QGOSv4wkQA09P4BnF5FR0UQgXjrhTCVBtBsu9WIBNhbA9YXw6hsELyHkdPpcSl0uHPinwpnCuiA0VWvf0LQ6dl+6JAqCADrgUo0O24VnACMyAZBpwQgHJ1TdjqWdLAgCRd1vABMCMrNajev8bXknN1BxwQi4EolIQDTISWWqMU8r8mhU6o2OTGCtWF4KyAGJB3fDVIBtiQVYhoY/WbB3UGxASTvdCbH1nIsUtdgig3A2cDITOltE5CwVCORIqQRaTVGxkO5CcP8y6xgivjeZwjRRiwFHqojxyxCRseql/43IyWEqwNiAcjQ4ZeWK1+lNT8zIXwmorcCHDj3z6MqNx3ZVPD5PfACYF5ZzbaKjmpNVy04AaTgotrptxT4jGGvGvDpZZmS/IMiref6DZAUOhWI7uLxP00fIM2/5VIDaaxlg9xp4DzV1ay/pBYHy2ku0PX+1loev6RiWQiXU/mKrOd9WbJ/tar9tp5/AhG7EglLbnrsAAAAAElFTkSuQmCC;fontSize=14;" vertex="1" parent="1">
          <mxGeometry x="710" y="248" width="32" height="32" as="geometry" />
        </mxCell>
        <mxCell id="ELkH5JOpvB0yVDv-fO6E-33" value="设计打样服务" style="shape=image;verticalLabelPosition=bottom;labelBackgroundColor=default;verticalAlign=top;aspect=fixed;imageAspect=0;image=data:image/png,iVBORw0KGgoAAAANSUhEUgAAACAAAAAgCAYAAABzenr0AAAAAXNSR0IArs4c6QAABEhJREFUWEe1l19MW1Ucx3/n9g9CV+i/oRNKGHHGmHSOYrIHJY6wP1zclj2YuL1tmvmyxA3KzDbcBGQMtUV0moDTbYnE7cEHWVzpmDoIMVkyaKeNf4KGsdmAaaVdWwrrvb33uNvsIn/uPfdi4L60t79zvudzfn/O7xSBisdZW1eDMXo7Q+l3Ba+2x0hTunq6nv2s549zGPB7AV/HFSV5pDRAsFfsctlwBiIUgu3DXs910pyDdS17R36PX8IZTVHg+vsTSvqqAAQRJ+3CCOETI96OMyTRCrq+AQP6wN/nUaWtalDWC7WurzBGen+f+xUSwP7D734fnnqQ9vacrlXavWBXD0C7XBtKDEcvd7c8QRLetu/4eDTGdI34PO0rClBO172EgBrAOk1R4Ip0bMvp42sRMGFMoW2Bq+7vVhRg4/YGw1qzdnqd7bGDPZ82fS4lXk67aATg5XM48+1vOu+vKICYiPZ1uWd7z7e+KQ1QfxIBalGbgMvKAWHwa0eab1lNOc//NZk6aszThUZ+S2gx8IUIICrYNz9nvcBz/E/d7pOb1Ox+2QCHjrXdjCeZzb+OJbP6hlwNpGa57Hdzvg7sj+dCOJbu9X7ZtmdVAJy1DU2A8TtEcYSa/V5306oAvNHQen74l9gBUdxo0EIylVm4FoKLfq9nbowSiOpzQEzC+YKSAADAY279bV/nuNLiy8qB7i8+/qT767uH1ABUOq1tH50+0bhiAJtqjpSWFRnvxKdZiCXYOV0h8ea/z1twnMdclRovEEMgLEwBtQUQEhKvdPGOCABQaMm5GY4x13a+UDjV0vjWWTlvEAGUsp4EINiEJxZnDvh9HRdXDSC7yLywLFlIoSqIHiinXTcQwBZSMpG8IMzDAAOBPk/V//MA7cJKmawEIMwn9QZZD2QTEGnuiABiTMV30e3C74lUBjTUUik2gx8enJh4LsgCiHc7JQDBrtEgIgCFUdWwzz0g5U1ZgD2vn+q8N5E6rBQCVXaMZStBFkCuBOfK61Hm56/RQmI6k+2GstVAqARZAKkKKCs2wFgotWDTBWu0EJ/+ryFJgZAqQRag+tVjmFjfjzBMRt3f95Ms8aJqM+lD/ZfO2FXnQGNr+4t9P0aGlOJbYNRCIsmFMOBipbFyHVLSA4tLUE7cYtRPxpIspwag4pmCfec+PHV5sZYkgLOmfj8gdEFpV5Z8/UQswXAYQNK9C+bLVIIkgO+HwV4EsPvPu//cmgxHbZGpxExwNGJ8kGZLFkGJl44FnTJHr4WSIot/fbE1/VSJbcb+pLk6zWYGd++oXnKsSwJ8OzRk1jG8A1HgAAAHxtnPjWyGi8/OsmP3JqL86HjExrDpUDg6ayqzW2eeLrXmWQqMWrMpz6qhKBsgCAKGIMZ8EAH1M6ungjsrK5f8s17Wlay/f3ADpwUHhcDxsMs0AYIbCCMGA94BGJoxQkGOZ4Ivb906qhQ+0f4vVijaMF6f3J8AAAAASUVORK5CYII=;fontSize=14;" vertex="1" parent="1">
          <mxGeometry x="798" y="248" width="32" height="32" as="geometry" />
        </mxCell>
        <mxCell id="ELkH5JOpvB0yVDv-fO6E-36" value="Redis缓存" style="text;html=1;align=center;verticalAlign=middle;whiteSpace=wrap;rounded=0;fontSize=14;" vertex="1" parent="1">
          <mxGeometry x="475" y="700" width="85" height="30" as="geometry" />
        </mxCell>
        <mxCell id="ELkH5JOpvB0yVDv-fO6E-37" value="EMQX" style="shape=image;verticalLabelPosition=bottom;labelBackgroundColor=default;verticalAlign=top;aspect=fixed;imageAspect=0;image=data:image/png,iVBORw0KGgoAAAANSUhEUgAAACAAAAAgCAYAAABzenr0AAAAAXNSR0IArs4c6QAAAhFJREFUWEftl11SwjAUhc8tLgRWImxAZAXSHTjCO/QdHHcArgBxA+BKrPugjZOkCSFtmqQyzjhjHtsk98v9ywmh63ibbUAYgiEH0QfK0xaTlzx2O4pdgPenKRhtGtcRS1GUxxiQcIDdfAhiC3FqOXIQy1AkORLGgfriK8MRjDJMVseQw/kBdo99UE+6Ww/KMF4tLwzs50uAPVyCFKnPG+0AMs5TbYhhC1Zkzk0lrPKS9Agoa8uPZgAZ50VXt8IVrrvnrR2WS4D6QoAnVsPCkPhWCdt6kDMAN56ww4W779dpkCHfJFWyKlGNQ50B9jPWJYt9tvX/c37InBqvhW0JwH8mvU/zR21jGR6e5eGD6KuWgPsZt9NHWQx4MlcAhvsrspoVtTDcfFUEVg5pABrxXhEOwCujpNtY+7Wy7QwQbdmx4B8gygNmdYSFIEdZjFr7fxRA29XrAnJVkZofBSB6xNy4BX1uOOW+2w/RAD6bsf//LsDVW3FsJ/y1VlxdErXQXq8Vy1u3ND3AP6gT+mRXbNKZ899mh0pb5hivB+frWABYorKDxHay2f2kUZComv+BxHZoCFPKa9eruRGi1C+xNUColNeKyOU7W8t5JLbYRoaSC1E5xEPFDR/wMHG8iGyl3FHK+wHUSaRqtp5gRQrc9K0nW5SUDwfQt5lVLWb4eAlHSvl4AFEt1hNM9A56DX2Qmszf8oKVMApDhjAAAAAASUVORK5CYII=;" vertex="1" parent="1">
          <mxGeometry x="800" y="655" width="45" height="45" as="geometry" />
        </mxCell>
        <mxCell id="ELkH5JOpvB0yVDv-fO6E-39" value="" style="shape=doubleArrow;direction=south;whiteSpace=wrap;html=1;" vertex="1" parent="1">
          <mxGeometry x="845" y="365" width="60" height="60" as="geometry" />
        </mxCell>
        <mxCell id="ELkH5JOpvB0yVDv-fO6E-40" value="" style="shape=doubleArrow;whiteSpace=wrap;html=1;" vertex="1" parent="1">
          <mxGeometry x="480" y="280" width="60" height="60" as="geometry" />
        </mxCell>
        <mxCell id="ELkH5JOpvB0yVDv-fO6E-42" value="" style="shape=doubleArrow;direction=south;whiteSpace=wrap;html=1;" vertex="1" parent="1">
          <mxGeometry x="425" y="220" width="60" height="60" as="geometry" />
        </mxCell>
        <mxCell id="ELkH5JOpvB0yVDv-fO6E-43" value="" style="shape=doubleArrow;whiteSpace=wrap;html=1;" vertex="1" parent="1">
          <mxGeometry x="384" y="280" width="49" height="60" as="geometry" />
        </mxCell>
        <mxCell id="ELkH5JOpvB0yVDv-fO6E-44" value="" style="shape=doubleArrow;direction=south;whiteSpace=wrap;html=1;" vertex="1" parent="1">
          <mxGeometry x="430" y="350" width="60" height="100" as="geometry" />
        </mxCell>
        <mxCell id="ELkH5JOpvB0yVDv-fO6E-45" value="" style="shape=doubleArrow;whiteSpace=wrap;html=1;rotation=45;" vertex="1" parent="1">
          <mxGeometry x="478.54" y="353.54" width="110" height="60" as="geometry" />
        </mxCell>
        <mxCell id="ELkH5JOpvB0yVDv-fO6E-46" value="" style="shape=doubleArrow;whiteSpace=wrap;html=1;" vertex="1" parent="1">
          <mxGeometry x="272" y="277" width="60" height="60" as="geometry" />
        </mxCell>
        <mxCell id="ELkH5JOpvB0yVDv-fO6E-48" value="" style="shape=doubleArrow;direction=south;whiteSpace=wrap;html=1;" vertex="1" parent="1">
          <mxGeometry x="390" y="592" width="60" height="38" as="geometry" />
        </mxCell>
        <mxCell id="ELkH5JOpvB0yVDv-fO6E-50" value="" style="shape=doubleArrow;direction=south;whiteSpace=wrap;html=1;" vertex="1" parent="1">
          <mxGeometry x="591" y="592" width="60" height="38" as="geometry" />
        </mxCell>
        <mxCell id="ELkH5JOpvB0yVDv-fO6E-51" value="" style="shape=doubleArrow;direction=south;whiteSpace=wrap;html=1;" vertex="1" parent="1">
          <mxGeometry x="822" y="592" width="60" height="38" as="geometry" />
        </mxCell>
        <mxCell id="ELkH5JOpvB0yVDv-fO6E-52" value="" style="shape=image;verticalLabelPosition=bottom;labelBackgroundColor=default;verticalAlign=top;aspect=fixed;imageAspect=0;image=data:image/png,iVBORw0KGgoAAAANSUhEUgAAACAAAAAgCAYAAABzenr0AAAAAXNSR0IArs4c6QAABEdJREFUWEe1l91vU2UYwJ/nPS3dum4tFGemjHThQhYLGj/ijUi583LEP8ASvKk34KXhwhFNxoUJEIJoAineGC+QTW8wfqSFwgUquOhKcXysA5ZubsjpUtZ2Pee8+pztbdrT95zToj43Tc778fye77cIHUg083sMgMUA+G7OMYIIEc4hT1cg8jxHzPs9s9lw8Jtz3w5/an53E3Tb8GIqF9E8RhwAPnDbK9af2ZjUdMNfqmnhr/zduY+cYBwBopnsaCeKBYCHLcNTwXGgX5LHleEzl1468I7MACnAmtV6EgBj7Vpt3Rf0X4W+7p/qn8vVbRe7uu7Erd5oAVh3+cyTKm48N7Dx87oX6HtVG6hs8BaGGyGaAEh5TTFSlFz/BYDPOwf9feebrtJ5d4mx8g4B0QQQzUyl/o3bZdBWL9CeSm3w69QLh0bM6hGHZAmnVdeWS38ieHxrOz0+Dl1B3raDrLkgDi6vvLrryiv7LzcC1G9V7zNQ7ym2Sggi8LQBgX5uAjmJLAy0X+c9FcYeD5sAz1/OJpFDvFJEWLqlgLDczUwBEho0HLcOhk9I10vlne+ZANFMlhfnFPVRnoXclMrWQ1t1cIKwA1itDUzijktT8coKHi1Mep9IuQBygrAF0PpV3P599sKDa943O7Lc0OcB2Wel958bDY3lIjooMcUPH27epm2xJih1Q6oEmehGQMOhczdOL9727G8XAAuzqjJ7e686kUg3niGQ3iH8Nfis3uRJuyoQZ7H/zM0LK4usLQ+wuzeALRUOq+cTNCNaJHzy5rGBnfoBseBkvVkJ5IHQ8en7Whm2uHkA52aAPbgLxfGE7QDb+sXU632DmBF3URekMrSTVT08jz1HpmcQnFsvLj8Clrtu3oMchtSJhO2sp4qifZsCP0CPL+doF3VEDByZTgGA49Qj1+NiQQDsUycSZ2U3U0VxxKSb5cL930U/9rYFoFz9sa6Pczi7PJHYJwN47ecvFzf1pDe7hZPWqQllXn73GAbG/hj95z1l+9ohy8kDDZJHDnusYdh17ZODge7fjnai3AxpYOxWDJBTGKQiAQBEkFbCG9ePn/Z6Hr7FWCUkXkONl1Ln824o7G15Dzjlgch+K50dBO2jd0VvX8octyQG9/1Ck09moVlSTmGwA1ivCMqFtFNVuIXEBKAupqEifYY1lqDNZWnkcNjaGZ0Uh0ZORQR0van0jk3HOUKy5WC1AsrkFTdDaJ1AqOlTj8g3eiU0coqe9WAA7EaEeGP46gDrXiCAlp5ATYg80aGIZmV9X+aL44khcVdTWyWIGiqpls7YvhfcGJuUm3lkPWEH4ZSMblrX16l/UBdtmqLSwfI/QKSL44k9tmUoWzBzAljc2iU79YRTv5CGQBYSKwj+tVDChbmAU2LSzGBglqfjv2TXf8cCaM0jnghH/raZpIa+HQyjiz1cUHm1XMHVah6WFuYZwEW7aSnz9N/T7e4kfncNPwAAAABJRU5ErkJggg==;" vertex="1" parent="1">
          <mxGeometry x="40" y="182" width="60" height="60" as="geometry" />
        </mxCell>
        <mxCell id="ELkH5JOpvB0yVDv-fO6E-53" value="" style="shape=image;verticalLabelPosition=bottom;labelBackgroundColor=default;verticalAlign=top;aspect=fixed;imageAspect=0;image=data:image/png,iVBORw0KGgoAAAANSUhEUgAAACAAAAAgCAYAAABzenr0AAAAAXNSR0IArs4c6QAAAjhJREFUWEftlv1twkAMxZ1JWiZpmaRlkpZJSicpmxQmSfld7MhxbAioEv9wEgLuw35+fvZdJ3ce3Z39ywPA1Qz0Iu8icuhE9j591fylFC8G0Is8i8iXiLyq0VUncuC3rv3qPMA2tvYvAIIDs7k9of9UAHx/OGcAWy8BsYiBfnDkHeBr34msFQDRw5AfI8BzLKQAiNij70V+HPXe3kr/GP1+bQSoIF+jbpifAeiHHOPQU1wB2CBI3R8D9QwZg2hj5zdOACS5Jo/7fhAf6o8DAFAf08O+FoALiLmZNiKAVEzqBBbi2OpEBgB94DCmZ8JCBJBR3ajsB0MzoRUA6BOrQjsTbSwB0OgsHF07P6memQiLcjPaUTwMeRYyAC3PCfVmZ1KeWRVUiscZXc5rgTkcIlIbOEcT1jHL0hwZ0FxhCHSHC6p/cRVBFTAMACX2vaAs2U+vocpaL/cCIyoMEQGReMoBidNmQH8bABNeJlYrZ19lbb8ByGi3JvMWeoDPu2cg08OuE9mca+UGIOv11jh8no0NE6QH4IWHVjhnTSqW79ioRhEWdW4CalesSwt5nrRUZQm2DFQlxBYY9E/KMLnvk8bXnLbIsgcJff6MgMdg7Bad9QEVJOLj85QhOEV4tHdAXFfnxTE5wlp8I2R9gEvHcpaBuAUAztuI4DMAlSBH4VQhKoOcRwul8Pz56kESjbQGkz0oMjB6BVsPMSDpC6l8kqkoOYxi2+PzlqFgShuL3oS3OF565gHgwcAfNsLBIfteXWUAAAAASUVORK5CYII=;" vertex="1" parent="1">
          <mxGeometry x="43" y="461" width="59" height="59" as="geometry" />
        </mxCell>
        <mxCell id="ELkH5JOpvB0yVDv-fO6E-54" value="设备端" style="rounded=1;whiteSpace=wrap;html=1;fontSize=18;labelPosition=center;verticalLabelPosition=top;align=center;verticalAlign=bottom;" vertex="1" parent="1">
          <mxGeometry x="13" y="570" width="127" height="190" as="geometry" />
        </mxCell>
        <mxCell id="YlWWNZ-oLNGDqZj-GfJf-1" value="" style="sketch=0;pointerEvents=1;shadow=0;dashed=0;html=1;strokeColor=none;fillColor=#505050;labelPosition=center;verticalLabelPosition=bottom;verticalAlign=top;outlineConnect=0;align=center;shape=mxgraph.office.devices.printer;" vertex="1" parent="1">
          <mxGeometry x="54" y="594" width="45" height="46" as="geometry" />
        </mxCell>
        <mxCell id="YlWWNZ-oLNGDqZj-GfJf-2" value="" style="shape=image;verticalLabelPosition=bottom;labelBackgroundColor=default;verticalAlign=top;aspect=fixed;imageAspect=0;image=data:image/png,iVBORw0KGgoAAAANSUhEUgAAACAAAAAgCAYAAABzenr0AAAAAXNSR0IArs4c6QAAAphJREFUWEfFlztvE0EUhY8jFzQUiEhQ8DBN6EPLI6lJmzqOhBAIiQLRUcSpkWjtDqehgDYFXRyloOMHpMGRUtBQ0VBELHwzez3jtdfajT3ySE5Gq/Web+7j3HVDS16NJevrMgAtSXw2JN2NDrAvaVj3QFUBEGzrytVX+vN7darISvNcfy9upwDoSNobe/D1lsRn7Ym/fHosnQ7Ybf6PjNtUXbMiQIg/5uHmeUOtb5/p+edcNZI47EiHZED8AbjyKgOIT01eD/L8DtTN2moUIrJggKO8wDhFPz9K2/23PHezzhjEwa70zd26G32nUhTiCFBohJzQs8il35Nv1i9X5D7PMQTiQHjAR3W6wQCK4oF+a09a25A+oOtWKLReBnDbgQFBHdSEMIA47F4G0R2eL+ndPROfLLI5IQAgv7lSrsOptzo+5EGclIzCMJbgOSAACKcn15ya09PXIezl4kbSy364lq2ZjgCA+JsjX3Dj4taGmBF7YKbb7iUgQgqu3brQ25PmqJhmN5FBTZpOTQgAyjsgQFjx+ZkQrJnmp/fD6mYtNVxaK6UjbkNC7A0nLE6KQNHf8QdEWJOdUQOiaMWEFK/npNjvLF+PIaw2jkdOWBGi6jguq4jJFvbR8u1aAWJeAAOzFxTSyJ6IePcqg8jvWRRADOIL0A8yX6BFCOaGf3/oLxqAhyKOKYUocPXOg74ePnuqxy9WI58ZpABAztzVxrMfWqzXX3/qxv2bzuJXmuepAOyFxlrUinWobravk957fXrJu+UwFYAJxkZlxSmtbw/0/QvtnqQGCLR5xLQhZjXCfZupIhAXIp4Q/16w+nDRSQUQF6INLq7tFH0iJUDZkBtrz5QA5gnUg/2WOCvOl9QAZTNkdH3pAP8AH2UhNdeGV/IAAAAASUVORK5CYII=;" vertex="1" parent="1">
          <mxGeometry x="57.25" y="661.5" width="38.5" height="38.5" as="geometry" />
        </mxCell>
        <mxCell id="YlWWNZ-oLNGDqZj-GfJf-3" value="" style="shape=image;verticalLabelPosition=bottom;labelBackgroundColor=default;verticalAlign=top;aspect=fixed;imageAspect=0;image=data:image/png,iVBORw0KGgoAAAANSUhEUgAAACgAAAAgCAYAAABgrToAAAAAAXNSR0IArs4c6QAABKZJREFUWEe1mD9IG1Ecxy82giYNFTkkQ8CgRQSHVEEQrUYcThwkDuIi/okuDqKLgwgmxHMScRHEyb/oIGJwEOMSrCbQxXhuolaiCLUYIUIhDiEt36O/8HJe/rS9PAjK3Xu/9/n9f+90iUTiF6fxWF5ejmxtbT2EQiFzLBZ75TjOajAYvpaWlpY0NDT86O3t/WCz2T5ZrdZsO4d1WgEeHR09zs7OPgaDwU/ZdsV7vV7/MDY2djY6OurIBKoJ4PDwsLS6upoC1tTUJAmC8NNoNPIGg4F/enq6DAaDz6FQqDwSiaTMXVpaioyMjPBqiv0X4M3NzUNjY2OENiwuLn7c29vj2tvbzZmseHx8zJ2engZEUbTG43EL5kKhzc3NN26XAbHR1NTUt+vr63ck+Pn5WVWj8vLyVwjCvIqKiiSHw+F49Hq9GcGU0NjX6XRGKCwsFsvlyclJNety3eHh4feOjo6/Ejw/P39ZU1NT0tnZGS8sLNQfHByYW1tbVY0WDoc5/NK9x6LJycno3NxcFMkkCMK+z+dzkDAdz/PncBGCtqur61suAb6zs2P/My8Moco1AFpfX+c8Hk/KK1gGoP39/W+A2Tj2eDyB6enpz1is4zhOLjPsw1wg080ZGhri1tbWsopwu90cfuxobm6W4G4Y6+rqygKFkoBer1dyOBw5lYh0uyMmYT0MCB8YGODsdrv8PwaSY2ZmJjkH1vT7/ay4sNFoLIrFYmZytWaA2LytrS0JprQOUSjdPzg4yK2srCQhx8fHw4uLi7JGt7e32loQm+fQHWQYxCfFKKxISYTMrqqqisMJSEbNLKjmdrLW3d0d19LSIkOwCsDisLzSimVlZRISt7u7+0veAAHH1kkoAEC4k41JCgu4k8bCwsLlxMRENc/zUt4AyTpKywIQFsNglWDdTIDI5rwBFhQUqCa7MnMp89UAU+qgFmWGJWJLDvtcWf9IERZQFMWA2+1OLdRaA7JZygKyIHhOgIhBik0CxOEjby7G5ugqyFIq3ko4tuskEomkHtT2TCZTJK+AbHFW1kc2QZRlhqzqdDrzl8XZmjFlOcDZEiNJ0m5dXV031sPiqhaEdhBAA0Lwc7lc8l8cBjY2NlIYqF0hOSie4EJyLyajL6M/Y1CNVLq9vr5+/ezsbADufXl54VUBKcCxGBugE+AZ1TASDmAacBPAAUWAcBUdr0gGZTHmKjsL7jV0NqWkzQhIgUsHARIOQOoKrBnVANn4IsXZjGXjlBTHyfr+/r46bR0kQRTYdAigWKEaR+/hNsBnAyRFlW4FCPVf/M8qkNGC2BQnYwCyi0hTijuK0WyA9B6AWNPX14fbIK/X6y0kU1mPMwISFBvQEPyvLkbikbJU68id+/v7UlFRkVl5I8wJ8G9jkGKXPc1QNlOi9fT0fNnd3bWz8aZWmtKWGRzN2ZMu3TMoW+kCpBSKeXRaYbsIHbcobv8LMFuR1eJ9bW1t4OLi4rPNZgucn5/LBwNVC9K1E41ZFMVoZWUlPvbkdfj9/hK6dwiCcOPz+T6mBfyXi7uW9Golh5Uvf/rA5zKXy/UQjUZVP3doCUSyTCbT++3t7dds33F+AzF/T6LmH3SLAAAAAElFTkSuQmCC;" vertex="1" parent="1">
          <mxGeometry x="57.25" y="720" width="40" height="32" as="geometry" />
        </mxCell>
        <mxCell id="YlWWNZ-oLNGDqZj-GfJf-4" value="" style="shape=doubleArrow;whiteSpace=wrap;html=1;" vertex="1" parent="1">
          <mxGeometry x="130" y="188" width="80" height="60" as="geometry" />
        </mxCell>
        <mxCell id="YlWWNZ-oLNGDqZj-GfJf-6" value="" style="shape=doubleArrow;whiteSpace=wrap;html=1;" vertex="1" parent="1">
          <mxGeometry x="130" y="390" width="80" height="60" as="geometry" />
        </mxCell>
        <mxCell id="YlWWNZ-oLNGDqZj-GfJf-7" value="" style="shape=doubleArrow;whiteSpace=wrap;html=1;" vertex="1" parent="1">
          <mxGeometry x="140" y="640" width="70" height="60" as="geometry" />
        </mxCell>
        <mxCell id="YlWWNZ-oLNGDqZj-GfJf-8" value="" style="shape=doubleArrow;direction=south;whiteSpace=wrap;html=1;" vertex="1" parent="1">
          <mxGeometry x="425" y="110" width="60" height="40" as="geometry" />
        </mxCell>
        <mxCell id="YlWWNZ-oLNGDqZj-GfJf-9" value="海关|客户|供应商|洗水厂|物流公司|..." style="shape=ext;double=1;rounded=1;whiteSpace=wrap;html=1;fontSize=15;" vertex="1" parent="1">
          <mxGeometry x="270" y="-50" width="350" height="60" as="geometry" />
        </mxCell>
        <mxCell id="YlWWNZ-oLNGDqZj-GfJf-10" value="HTTPS" style="shape=doubleArrow;direction=south;whiteSpace=wrap;html=1;" vertex="1" parent="1">
          <mxGeometry x="426" y="10" width="60" height="70" as="geometry" />
        </mxCell>
        <mxCell id="YlWWNZ-oLNGDqZj-GfJf-11" value="基础服务" style="shape=image;verticalLabelPosition=bottom;labelBackgroundColor=default;verticalAlign=top;aspect=fixed;imageAspect=0;image=data:image/png,iVBORw0KGgoAAAANSUhEUgAAACAAAAAgCAYAAABzenr0AAAAAXNSR0IArs4c6QAAAO1JREFUWEftV8ERwiAQ3OuCp52YVGLswFSgVkA6MHaClciTLs7EMUp8XS44fo4fM+yxLMPeQs5zBd2IqaWog35Q5DpmVRFGnVoKKmwGmghEMM6iYoQtgAaFCYR0oFpCwHk+gXA0AqaAKWAKFFdggRPufuGEEhOcrylmxZ6b5bsDqaVeg/vGUIkia2r8n4BTXgGAMAUS53kzzFXBpkggeR6CcFFcRSgSSDIC/eAPNxGRMVMAcSKwKpC8CTD20tfhOr4bAVPAFDAFZgqAcRU62BhIqjwRlXBC0d6zRVkgWdcLlN/z/Gf86oZjR1w64gPnvYEq7/bENQAAAABJRU5ErkJggg==;fontSize=15;" vertex="1" parent="1">
          <mxGeometry x="580" y="464" width="32" height="32" as="geometry" />
        </mxCell>
        <mxCell id="YlWWNZ-oLNGDqZj-GfJf-12" value="文件服务" style="shape=image;verticalLabelPosition=bottom;labelBackgroundColor=default;verticalAlign=top;aspect=fixed;imageAspect=0;image=data:image/png,iVBORw0KGgoAAAANSUhEUgAAACAAAAAgCAYAAABzenr0AAAAAXNSR0IArs4c6QAAAa9JREFUWEftl19ugkAQxr9Zo/ESGvrUcgrpTeAk6knEk4inoH0qoZcwNuw0u3UbQGD5o7Um7iu7w2++nZkPCDdedOP34z4A4vlkRcyLvmox0d5Nj6uq81YF4tnYJ6JN35ebcyzEq5sconIcO4DKHlgSEEoh1l1BhJRLBnxmDtzPr7A3AAPrOhmboN7nk01ngMKdEzkAnD8DqLtzA3DKyLNdBQHRc3oMOivwC8Ac8WgUQEpf1YABeJuNdyBqAxAOAlBFpwLo68gB2DIvP++twL8FiJ2pKkrrcpNDojZdXIGb14DOiNmqghm/F1fAqn1pw30BqAIzsxtAwsBWu6DqezUXgG3VPDdJ6wKV0s+LYDtfMKM2BVbnavmKb7qm8kgvAswnH3ruMwflIIJooU2lwZRMAto5mfeFGESOcVU14MyzSoCX9Hhm02YiVgY/RSOipU6gwvtjZ+qRlDsz4LoDnAK06QIW4skMolx9DAZwkGUefuy5fgkRVX35DFagTeZNex4AnRRQVTxU8rPzUnr2Nmz5tTMErrENtUxZpnr5Kks5JIQI8y1q/S+4Ckku6APgGwF+vTBpvZ34AAAAAElFTkSuQmCC;fontSize=15;" vertex="1" parent="1">
          <mxGeometry x="680" y="464" width="30" height="30" as="geometry" />
        </mxCell>
        <mxCell id="YlWWNZ-oLNGDqZj-GfJf-13" value="JOB服务" style="shape=image;verticalLabelPosition=bottom;labelBackgroundColor=default;verticalAlign=top;aspect=fixed;imageAspect=0;image=data:image/png,iVBORw0KGgoAAAANSUhEUgAAACAAAAAgCAYAAABzenr0AAAAAXNSR0IArs4c6QAAAk1JREFUWEfFl01uo0AQhV8Dcw+yHIncwVYcabYjZtaxT5L4JHbWE5TtSOMo5AxBmmW4R6Arem03IjY/DUixV8hqqj5e/bb68fg/LHSxBNQtvugnQK4g94EXbNVVkm0UsPwi35/cCLBViySTczinT6PEOQEIMQFA1rv48m5qDo0EqDkvinD3+zJdJK93YxJ5FEDg+RelLmcCbEz+aJkHQZAXunwbmk/uAIIUImt46pkARVGEfDZxBFb/4mjLfOKzQEJXNdwAtMyNzH9eZ3RKJ77np3sVJGQuXCfZkooQ7u/P77lrSPoBrPNajG0joWMqYMGq0oLc16G6wtIJUEn7kD1DYXZsaA+CsMkBm8xTHK36lGgHEKS7X9G8z0B30u2rZdHyAd19oJJ+fKekQk9xdFEP0TFwowLViyNr+7MTWXPoFGW5aQpjG4CJ31WSvbXF2LXeq49pCUMjQL2uXR21netTsxVAtOS20UyFOG5cdXv9fWCq9573mwHYdpW8KKhcBDdNyePE5WDnFOBQ/9YBx+27Lm8Hb01Hdmivafs6AWC8eJiTzXQ6Lasxk87VzgnALo6UHSx20nHwDB21TXbsxOxOwsNsp+w8yH5QB3KKfW1H6LNzogBl/+b5c45U2jErV0sX64JxtdPaigGkShCyAuz4dV0yAFkL1M0BsLLTBOzUB+xo7a0IQRr4/orquYbNCcAuGjY0BOF/diOCRsqNaUzInAEsBEPjAS9s1XRqcsTsh3ZhGXbFGwTgXAEDDp4f4OyX06lXqwFqV0frW/UHPFDbM3nJthUAAAAASUVORK5CYII=;fontSize=15;" vertex="1" parent="1">
          <mxGeometry x="790" y="461" width="32" height="32" as="geometry" />
        </mxCell>
        <mxCell id="YlWWNZ-oLNGDqZj-GfJf-15" value="报表服务" style="shape=image;verticalLabelPosition=bottom;labelBackgroundColor=default;verticalAlign=top;aspect=fixed;imageAspect=0;image=data:image/png,iVBORw0KGgoAAAANSUhEUgAAACAAAAAgCAYAAABzenr0AAAAAXNSR0IArs4c6QAAAflJREFUWEdjZBhgwDjA9jNgOMBno3IpI+P/NgYGBiYqOw5kXv1mv3tNyOaiOMBrq6I881/GB1S2GM04Jp3NfneuwgRRHOC/QUn3HxPDJVo64N8/RuutAXePDR0HaAoZM7AxcZAVKL/+/WC4/u4sil6SQkBH2JyhzWoZWZbDNFUei2S4+vYU3AySHOCjGM+QplNHkQNmXWlk2HJ/0QhwQPWxaIaX35/AfaorbM6Qb9DFQJcQePXtCcPex2sZrrw9xXD57QmwI8S4ZBjmOB+kvgNAPgVZEqmWxxCpno+SPmByNHMAugXOMkFwR8DkdIUtwI4CRQdVQwDZgnyDToaq49Fgi0COgAU9yPJWq6UMsPRANQdMvFAGjmOYBSCLQfEOcgSIBgF0OVAaAAGqJEKQA0AAlKqRAcjyiRfKGcS4pDHkYOqo4gBKSqKh7QBDUVuGRosFlAQAQ/2JBIbzrw+TVxSDdJmKOzGwM3OS5Yiff78znH65j/zakCxbCWgiqTYcFA4QYBehyB0ff75l+M/wn7w0oCagz2As7kCRA86+PMBw68NF6jjg378/RDmGiYkFro4iBxBlG4mKBnki3Kks++/n/0ckeook5Uz/mLQ3Bty5BtOE0TXz3aRUyMDA0ErtrhkjIwPT////Gzf73QeZDQeDr3NKUnhSQTEAXPSoMCjCkeEAAAAASUVORK5CYII=;fontSize=15;" vertex="1" parent="1">
          <mxGeometry x="890" y="461" width="32" height="32" as="geometry" />
        </mxCell>
      </root>
    </mxGraphModel>
  </diagram>
  <diagram id="k1JsasIzy8tPIQsP5_v_" name="第 2 页">
    <mxGraphModel grid="1" page="1" gridSize="10" guides="1" tooltips="1" connect="1" arrows="1" fold="1" pageScale="1" pageWidth="1169" pageHeight="827" math="0" shadow="0">
      <root>
        <mxCell id="0" />
        <mxCell id="1" parent="0" />
      </root>
    </mxGraphModel>
  </diagram>
</mxfile>
